<svg width="560" height="270" viewBox="0 0 560 270" fill="none" xmlns="http://www.w3.org/2000/svg">
<g clip-path="url(#clip0_9_239)">
<path d="M215.997 211.576C217.043 209.448 218.435 209.678 219.721 209.661C222.824 209.625 225.928 209.687 229.023 209.545C233.022 209.359 234.733 207.559 234.272 203.658C234.032 201.645 234.99 201.698 236.302 201.698C241.951 201.698 247.617 201.476 253.256 201.742C256.493 201.893 258.39 200.563 259.951 198.018C262.496 193.86 265.457 189.993 268.534 186.207C269.669 184.815 270.84 183.716 272.711 185.063C274.449 186.314 274.724 187.927 273.704 189.71C272.001 192.689 270.219 195.615 268.463 198.568C267.86 199.57 267.257 200.572 266.53 201.769C278.802 201.769 290.631 201.769 302.46 201.769C311.77 201.769 321.072 201.725 330.382 201.769C332.794 201.787 335.002 201.246 337.015 199.996C339.081 198.71 341.289 197.557 343.089 195.952C347.549 191.971 352.71 190.845 358.447 191.536C359.449 191.652 360.814 191.093 361.071 192.769C361.284 194.179 360.965 195.464 359.741 196.289C358.234 197.318 356.46 197.859 354.705 197.38C352.772 196.857 351.725 197.584 350.466 198.958C349.101 200.448 347.239 201.494 345.678 203.072C349.429 202.851 353.038 203.995 356.877 202.461C359.511 201.405 362.765 201.751 365.735 201.725C376.261 201.654 386.786 201.636 397.311 201.725C399.563 201.742 400.947 201.042 402.082 199.056C404.928 194.055 407.978 189.169 410.957 184.256C411.472 183.414 411.942 182.456 412.669 181.836C414.043 180.665 425.81 180.86 427.388 181.889C428.364 182.527 428.576 183.503 428.505 184.487C428.435 185.516 427.903 186.402 426.847 186.775C426.439 186.917 425.952 187.067 425.553 186.97C418.468 185.258 415.843 190.118 413.121 195.145C409.565 201.707 409.468 201.707 416.81 201.707C451.595 201.707 486.381 201.671 521.167 201.645C522.381 201.645 523.614 201.592 524.82 201.689C528.056 201.964 530.069 204.074 529.998 207.018C529.936 209.856 528.021 211.54 524.634 211.549C514.773 211.576 504.913 211.549 495.053 211.549C479.988 211.549 464.923 211.576 449.857 211.585C447.446 211.585 445.043 211.585 442.285 211.585C443.154 209.696 444.44 209.687 445.761 209.67C448.306 209.625 450.859 209.634 453.395 209.421C454.575 209.315 456.056 208.818 455.763 207.24C455.453 205.6 454.122 206.469 453.067 206.513C449.529 206.672 445.991 206.752 442.453 206.726C439.846 206.708 437.603 207.497 436.025 209.563C434.712 211.283 433.054 211.576 431.068 211.576C419.656 211.549 408.244 211.585 396.832 211.603C395.653 211.603 394.474 211.603 392.833 211.603C394.952 215.664 397.701 218.643 400.264 221.755C401.39 223.121 402.543 224.469 403.624 225.87C404.077 226.455 404.768 227.235 403.979 227.883C403.225 228.503 402.312 228.166 401.585 227.519C400.344 226.419 399.084 223.671 397.577 225.214C396.274 226.544 398.907 228.255 399.989 229.638C401.186 231.181 402.622 232.538 404.006 234.027C399.829 235.677 393.676 232.041 393.729 227.758C393.764 224.761 392.39 222.695 390.794 220.612C388.772 217.978 386.484 215.557 384.472 212.924C383.31 211.407 381.82 211.558 380.286 211.558C351.601 211.558 322.916 211.558 293.983 211.558C294.878 209.67 296.501 209.616 298.097 209.554C300.527 209.457 302.956 209.421 305.386 209.226C306.104 209.164 307 208.792 306.982 207.825C306.964 206.699 305.945 206.77 305.244 206.77C301.147 206.77 297.051 206.814 292.954 206.903C291.598 206.93 290.09 207.373 289.354 208.384C286.003 212.986 281.356 211.266 277.038 211.381C277.038 210.955 276.958 210.707 277.047 210.556C277.73 209.35 280.319 208.827 278.909 206.956C277.836 205.546 275.992 206.593 274.564 207.036C273.642 207.329 272.516 207.754 272.01 208.49C269.776 211.753 266.566 211.611 263.179 211.585C248.663 211.496 234.148 211.549 219.632 211.549C218.551 211.549 217.46 211.549 215.997 211.549V211.576Z" fill="#A47845"/>
<path d="M257.778 168.393C260.82 162.461 263.542 157.097 266.326 151.767C266.92 150.632 266.628 149.701 266.211 148.637C264.916 145.383 263.702 142.093 262.451 138.795C268.685 138.795 274.732 138.839 280.771 138.768C282.659 138.751 282.784 139.416 282.074 140.914C281.56 142.005 281.462 143.326 280.833 144.328C278.208 148.504 278.997 152.335 281.445 156.29C283.697 159.943 285.612 163.809 287.838 167.879C289.478 165.52 289.842 162.922 290.622 160.537C296.226 143.37 302.203 126.319 307.212 108.957C307.869 106.678 308.8 105.49 311.469 105.783C314.315 106.102 317.215 105.854 320.522 105.854C318.146 113.338 315.964 120.564 313.561 127.711C307.523 145.667 301.316 163.552 295.366 181.534C294.364 184.558 293.229 185.755 289.771 185.835C285.55 185.932 283.36 184.771 281.711 180.754C279.334 174.99 276.089 169.581 272.826 163.268C269.536 169.617 266.575 175.239 263.711 180.914C261.538 185.223 257.353 187.067 252.733 185.64C251.678 185.312 251.58 184.416 251.27 183.636C244.221 166.185 237.659 148.549 231.213 130.868C229.891 127.25 230.849 123.659 230.822 120.076C230.796 114.845 231.266 109.684 226.256 106.049C224.882 105.047 224.775 103.176 226.194 101.979C227.719 100.684 228.455 102.511 229.342 103.256C235.442 108.39 237.038 116.095 239.938 122.905C245.125 135.088 249.452 147.644 254.178 160.032C255.198 162.709 256.422 165.308 257.743 168.402L257.778 168.393Z" fill="#FBF6E5"/>
<path d="M529.643 185.631C525.166 185.631 521.22 185.604 517.265 185.64C515.314 185.657 515.039 183.92 514.419 182.811C509.817 174.512 505.365 166.132 500.817 157.806C500.107 156.511 499.744 154.818 498.023 154.348C494.113 153.275 492.739 154.348 492.739 158.453C492.73 166.655 492.65 174.857 492.783 183.051C492.818 185.285 492.118 185.897 489.981 185.711C487.241 185.48 483.543 186.589 481.974 185.196C480.156 183.583 481.309 179.796 481.291 176.959C481.211 166.549 481.371 156.13 481.203 145.72C481.158 143.211 481.992 142.838 484.164 142.962C490.46 143.326 496.773 142.794 503.078 143.344C507.955 143.769 512.539 140.4 514.02 135.869C515.696 130.779 513.532 124.2 509.205 121.149C506.057 118.933 502.546 117.86 498.733 117.815C493.634 117.753 488.536 117.744 483.446 117.815C481.77 117.842 480.6 117.709 481.167 115.572C481.282 115.155 481.194 114.685 481.194 114.251C481.158 111.511 479.864 107.787 481.637 106.324C483.304 104.949 486.913 105.871 489.662 105.889C496.17 105.925 502.696 105.73 509.001 107.92C523.915 113.116 530.619 129.085 523.915 143.388C521.982 147.511 518.817 150.393 514.915 152.299C512.636 153.408 512.796 154.366 513.771 156.157C518.223 164.306 522.603 172.499 527.001 180.674C527.817 182.199 528.624 183.724 529.643 185.64V185.631Z" fill="#F9F4E3"/>
<path d="M199.681 201.893C197.553 204.793 195.514 207.382 193.705 210.122C192.987 211.204 192.242 211.611 191.027 211.603C181.176 211.567 171.315 211.576 161.464 211.549C161.189 211.549 160.914 211.372 160.524 211.239C161.26 209.421 162.741 209.563 164.16 209.545C166.261 209.528 168.372 209.528 170.473 209.448C171.431 209.412 172.22 209.004 172.22 207.861C172.22 206.717 171.333 206.717 170.571 206.77C167.033 206.983 163.521 206.211 159.957 206.655C157.288 206.992 155 207.763 153.528 210.139C152.792 211.328 151.755 211.594 150.433 211.576C145.007 211.523 139.58 211.505 134.154 211.594C132.557 211.62 131.396 211.106 130.403 209.936C123.07 201.361 114.788 193.647 107.854 184.735C107.339 184.07 105.805 183.423 106.958 182.394C107.898 181.561 109.193 181.747 110.239 182.785C111.294 183.831 112.172 186.402 113.999 184.62C115.745 182.918 113.679 181.171 112.615 179.761C111.622 178.449 110.133 177.952 108.448 178.537C105.814 179.45 103.731 178.652 101.957 176.578C93.8881 167.17 85.8368 157.762 77.3598 148.708C72.6159 143.645 72.7046 140.373 77.2179 135.088C81.5273 130.034 85.8988 125.033 90.3767 120.139C91.6092 118.791 91.8486 117.709 91.2545 116.024C89.5609 111.245 88.0092 106.412 86.5106 101.562C86.1826 100.498 85.4732 99.9216 84.7195 99.2831C83.0968 97.8999 82.3697 96.1176 82.4761 93.9895C82.6269 91.0102 84.489 89.9372 87.1136 91.3471C87.7698 91.7018 88.3905 92.4644 89.1708 91.8614C89.9511 91.2584 89.2949 90.4161 89.2151 89.6978C88.9668 87.5077 88.6742 85.3264 88.3993 83.145C88.222 81.7263 88.7363 80.7155 90.1994 80.4672C91.6004 80.2278 92.9482 80.3963 93.4447 82.0101C94.6861 86.0712 96.7965 90.1589 92.9925 94.0693C91.4762 95.621 91.7688 97.4211 92.4161 99.3275C94.5797 105.712 96.6191 112.132 98.7738 118.516C99.4566 120.538 98.9689 121.885 97.4349 123.49C92.4782 128.686 87.7875 134.149 82.9815 139.487C82.1658 140.391 81.8111 141.26 82.4141 142.466C83.2564 144.142 83.9392 145.897 84.7284 147.591C85.0032 148.176 85.3225 148.708 86.0673 148.93C92.2211 150.801 97.7009 154.348 101.124 159.42C108.732 170.69 119.434 179.034 127.982 189.408C132.061 194.365 138.268 197.699 143.863 201.21C146.434 202.833 149.91 201.911 153.005 201.893C168.478 201.831 183.96 201.866 199.708 201.866L199.681 201.893Z" fill="#A27847"/>
<path d="M151.453 185.675C150.23 185.675 149.68 185.711 149.13 185.675C145.308 185.365 140.76 187.058 137.842 184.957C134.969 182.882 133.595 178.661 131.706 175.301C127.486 167.799 123.354 160.253 119.213 152.707C118.494 151.404 117.829 150.508 116.038 150.384C113.573 150.216 112.766 150.934 112.837 153.39C112.935 157.141 112.234 160.874 112.669 165.139C110.665 163.915 109.477 162.576 108.421 161.078C107.411 159.633 106.63 157.85 105.282 156.848C99.6518 152.654 101.053 146.74 101.035 141.118C101.035 139.274 102.214 139.637 103.27 139.637C109.477 139.637 115.675 139.655 121.882 139.655C127.743 139.655 131.963 136.818 132.974 132.198C134.109 127.019 131.263 121.522 126.324 119.039C120.897 116.317 115.089 117.071 109.414 117.23C105.699 117.337 104.014 115.474 102.817 112.504C102.09 110.686 102.516 108.789 102.409 106.927C102.339 105.738 103.216 105.8 103.997 105.809C111.064 105.871 118.175 105.029 125.18 106.545C142.161 110.225 150.008 128.482 140.91 143.016C139.27 145.631 137.035 147.68 134.278 148.788C131.644 149.843 131.963 151.094 133.036 153C138.259 162.231 143.446 171.488 148.651 180.736C149.503 182.244 150.363 183.751 151.462 185.693L151.453 185.675Z" fill="#FAF6E3"/>
<path d="M393.826 141.49C393.826 130.531 393.879 119.58 393.782 108.62C393.764 106.554 394.128 105.579 396.433 105.809C399.492 106.12 403.491 104.586 405.407 106.403C407.34 108.23 406.089 112.273 406.107 115.333C406.205 131.488 406.24 147.653 406.16 163.809C406.151 166.23 406.719 166.966 409.246 166.939C423.744 166.788 438.241 166.904 452.739 166.762C455.355 166.735 456.339 167.152 456.242 170.087C455.993 177.668 456.153 177.659 448.447 177.65C431.405 177.642 414.354 177.535 397.311 177.748C394.145 177.783 393.764 176.702 393.791 174.042C393.906 163.197 393.835 152.353 393.835 141.499C393.835 141.499 393.826 141.499 393.817 141.499L393.826 141.49Z" fill="#FBF5E4"/>
<path d="M66.7017 105.597C69.9559 105.517 74.8239 107.051 79.3816 109.729C81.0309 110.704 81.5452 111.706 79.9491 113.284C78.3796 114.836 76.952 116.539 75.5688 118.268C74.7087 119.341 73.8131 119.403 72.6692 118.915C56.0523 111.857 41.3862 126.745 41.8295 142.43C42.1842 154.977 48.8434 163.889 60.9647 167.232C65.079 168.367 69.0692 167.657 72.9175 166.256C74.7087 165.6 75.7727 165.742 76.7392 167.382C77.4131 168.517 78.2998 169.528 79.0713 170.61C81.2999 173.714 80.6851 175.972 77.2269 177.384C62.9952 183.184 44.9773 176.932 35.8974 162.789C24.2815 144.7 30.4176 119.225 49.1005 109.436C53.9331 106.909 59.1115 105.526 66.6928 105.605L66.7017 105.597Z" fill="#FBF5E4"/>
<path d="M330.444 145.623C330.444 133.333 330.497 121.052 330.391 108.762C330.373 106.501 330.914 105.605 333.282 105.818C336.119 106.075 339.861 104.976 341.608 106.403C343.461 107.92 342.246 111.803 342.264 114.641C342.344 133.235 342.388 151.83 342.264 170.424C342.246 173.501 342.92 174.565 346.21 174.449C354.279 174.183 362.366 174.441 370.444 174.308C372.864 174.272 374.159 174.68 373.787 177.473C373.441 180.071 374.895 183.521 373.255 185.117C371.632 186.695 368.218 185.56 365.593 185.569C354.971 185.613 344.339 185.516 333.716 185.64C331.225 185.666 330.382 185.161 330.418 182.456C330.586 170.176 330.489 157.886 330.489 145.596H330.444V145.623Z" fill="#FAF5E5"/>
<path d="M321.489 37.6391C307.603 37.8608 295.286 43.3318 282.961 48.8649C266.637 56.198 250.259 63.4424 232.756 67.6276C231.789 67.8582 230.787 67.9734 229.856 68.2838C227.852 68.9488 226.487 68.9666 225.653 66.4128C224.749 63.6286 226.726 63.4424 228.242 62.8394C239.645 58.3083 251.11 53.9014 262.496 49.3171C276.249 43.7752 289.416 36.85 303.533 32.1859C309.305 30.2795 315.228 28.9494 321.391 29.9957C324.557 30.5366 327.305 31.8933 329.079 34.6687C330.214 36.4421 330.329 37.8431 327.465 37.6657C325.488 37.5416 323.493 37.6391 321.497 37.6391H321.489Z" fill="#C4A422"/>
<path d="M188.766 65.8276C188.482 67.8227 187.817 69.0287 185.326 68.4346C170.979 64.9941 157.252 59.8867 143.828 53.8127C131.573 48.2708 119.665 41.8333 106.302 39.0402C100.388 37.7988 94.4468 38.0382 88.4881 37.985C87.4506 37.9761 86.0053 38.517 85.491 37.3377C84.9058 35.9988 85.8723 34.7751 86.8122 33.8175C89.8802 30.6962 93.7817 29.7297 97.9847 29.7563C107.269 29.8095 115.799 32.9928 124.072 36.6638C144.679 45.8058 165.366 54.7704 186.398 62.9104C187.693 63.4069 189.342 63.7527 188.766 65.8276Z" fill="#C4A422"/>
<path d="M66.3469 87.2328C63.1902 83.5884 60.0778 79.8908 56.8325 76.3174C56.1142 75.5282 55.1477 73.9321 53.8975 74.9696C52.9044 75.7854 54.1635 76.9735 54.6512 77.8514C56.7438 81.6199 59.1379 85.2022 61.9843 88.4742C62.472 89.0417 63.2789 89.6003 63.004 90.4338C62.6404 91.5156 61.5409 91.2141 60.7074 91.2762C51.1753 91.9678 43.4254 85.3884 41.9978 75.0051C41.3239 70.1104 41.3328 65.1271 40.9604 60.1881C40.8629 58.9113 41.2619 58.5566 42.4501 58.9202C48.5329 60.8 54.9349 61.6423 60.4325 65.3311C67.6592 70.1902 71.2858 81.8859 66.3557 87.2328H66.3469Z" fill="#3A5F0B"/>
<path d="M185.849 136.374C187.294 144.957 190.043 152.69 193.315 160.244C194.405 162.754 194.45 164.226 191.151 163.649C186.665 162.869 184.217 164.571 182.719 169.005C181.069 173.882 178.445 178.431 176.343 183.157C175.527 184.992 174.419 185.826 172.309 185.702C169.329 185.516 166.341 185.657 163.335 185.657C164.009 181.845 182.47 141.304 185.84 136.374H185.849Z" fill="#FAF3E5"/>
<path d="M168.425 69.8089C158.423 71.5292 148.536 72.5489 139.075 75.8386C134.295 77.4967 129.543 79.2524 126.031 83.1184C125.047 84.2002 124.373 83.7125 123.469 83.2603C118.822 80.9549 114.38 78.3391 110.23 75.209C108.971 74.2602 108.989 73.7105 110.248 72.7883C115.116 69.2414 120.693 67.2552 126.448 66.0936C136.938 63.9655 147.507 64.1783 157.944 66.6345C161.491 67.468 164.94 68.7449 168.434 69.8178L168.425 69.8089Z" fill="#FAF6E7"/>
<g filter="url(#filter0_dddddd_9_239)">
<path d="M438.02 240.155C435.245 234.063 430.208 231.243 425.296 228.273C424.436 227.758 422.813 227.741 423.079 226.286C423.292 225.116 424.71 224.894 425.695 224.513C431.503 222.296 439.776 225.382 444.688 231.465C447.472 234.914 448.696 239.028 449.928 243.161C450.177 244.003 450.372 244.872 450.638 245.714C452.065 250.281 452.074 250.299 447.357 250.272C443.189 250.254 439.049 251.159 434.837 250.139C426.883 248.224 420.632 241.006 420.321 233.265C420.224 230.897 420.986 230.463 422.875 231.589C426.954 234.01 430.988 236.51 435.058 238.94C435.794 239.383 436.663 239.605 438.029 240.155H438.02Z" fill="#D0F69C"/>
</g>
<path d="M246.305 70.208C251.962 67.7695 257.761 65.8277 263.835 65.3577C274.272 64.5508 284.708 64.4444 294.825 67.9114C298.062 69.0198 301.112 70.4829 304.029 72.2652C305.563 73.2051 306.113 73.9588 304.402 75.4396C300.687 78.6672 296.395 80.884 292.032 83.0209C290.968 83.5441 290.046 83.7037 288.84 82.7283C281.339 76.6366 272.294 74.2691 263.037 72.6553C257.513 71.6888 251.997 70.5538 246.305 70.2257V70.208Z" fill="#FBF8E7"/>
<path d="M144.28 235.987C149.033 234.879 153.076 232.493 157.049 229.922C158.361 229.071 159.735 227.022 161.252 228.042C162.564 228.929 161.828 231.154 161.668 232.768C161.03 239.17 154.3 245.12 147.073 245.404C141.992 245.608 136.903 245.36 131.813 245.377C130.279 245.377 129.8 244.934 130.438 243.427C132.079 239.569 133.489 235.606 135.289 231.828C138.596 224.912 145.752 220.886 153.386 221.401C154.043 221.445 154.716 221.525 155.328 221.747C156.454 222.163 157.971 222.447 158.157 223.759C158.343 225.072 156.712 225.214 155.869 225.799C151.631 228.752 147.286 231.554 144.28 235.987Z" fill="#3A5F0B"/>
<path d="M187.037 77.2484C174.57 84.9717 139.19 90.0614 130.483 85.5391C139.057 75.1647 175.723 72.806 187.037 77.2484Z" fill="#FAF7E6"/>
<path d="M227.143 77.3016C229.368 75.4662 231.745 75.5371 233.775 75.4573C246.428 74.9519 259.1 74.8809 271.398 78.614C275.167 79.7578 278.847 81.2564 282.083 83.6327C282.757 84.1293 283.972 84.2091 283.856 85.3086C283.75 86.3816 282.606 86.2574 281.826 86.5944C276.142 89.0239 270.228 88.0308 264.588 87.0554C252.644 84.9983 240.78 82.3648 229.297 78.3391C228.685 78.1263 228.127 77.7805 227.143 77.3016Z" fill="#FAF8E6"/>
<path d="M437.887 105.871C443.083 105.871 448.288 105.951 453.484 105.836C455.391 105.792 456.375 106.12 456.162 108.319C455.887 111.156 457.288 114.792 455.621 116.645C454.07 118.383 450.416 117.097 447.685 117.115C439.164 117.186 430.652 117.097 422.13 117.212C420.197 117.239 419.346 116.902 419.532 114.73C419.78 111.892 418.61 108.141 420.029 106.412C421.536 104.586 425.411 105.969 428.249 105.889C431.45 105.8 434.659 105.871 437.869 105.871H437.887Z" fill="#FBF6E6"/>
<path d="M272.516 60.1084C276.399 58.0689 279.76 56.6591 283.254 56.198C292.848 54.93 302.486 54.2738 311.957 57.262C319.219 59.5586 319.573 60.933 314.147 66.1646C314.067 66.2444 313.978 66.3065 313.898 66.3863C309.766 70.2612 309.784 70.2257 304.659 67.5124C294.878 62.3251 284.132 61.2345 272.507 60.1172L272.516 60.1084Z" fill="#FAF7E7"/>
<path d="M141.549 59.8601C135.315 60.9507 129.729 61.2345 124.311 62.5911C118.468 64.0542 112.669 65.6769 107.623 69.0907C106.098 70.1193 105.309 69.871 103.97 68.7626C102.01 67.1399 100.184 65.4109 98.4458 63.5842C96.1492 61.1635 96.2734 60.0108 99.3059 58.8403C104.271 56.9251 109.343 55.329 114.77 55.2226C123.708 55.0541 132.558 55.3201 141.558 59.8601H141.549Z" fill="#F8F8E9"/>
<path d="M216.91 81.1677C216.751 79.7401 216.635 78.7736 216.529 77.7893C216.227 77.8514 215.988 77.8514 215.802 77.9401C214.711 78.5076 214.614 80.6268 213.425 80.3608C212.078 80.0593 212.45 78.215 212.069 77.0179C211.448 75.0494 210.313 73.5243 207.999 73.2317C205.613 72.939 204.328 74.3312 203.228 76.0869C202.998 76.4504 202.98 76.947 202.758 77.3105C202.173 78.3036 202.616 80.1569 201.473 80.3608C199.699 80.6711 200.408 78.1795 199.078 77.6652C197.917 78.348 198.777 81.1677 197.154 80.8396C195.177 80.4406 195.452 77.9933 195.31 76.2731C194.654 68.2927 199.752 62.6 207.458 62.6177C214.729 62.6355 220.253 69.0641 219.508 76.6455C219.331 78.4366 218.923 80.1214 216.91 81.15V81.1677Z" fill="#FC5A00"/>
<path d="M123.265 50.9841C116.207 50.7358 109.29 51.3565 102.516 53.2984C100.946 53.7506 99.2085 53.9901 97.8961 54.8502C94.571 57.0137 92.4695 55.9142 90.5098 52.9171C88.9315 50.5142 87.5748 48.0225 86.4399 45.389C85.8901 44.1299 85.9078 43.6333 87.5482 43.2165C91.0685 42.3298 94.6419 42.3032 98.0735 42.7821C106.878 43.9969 115.453 46.187 123.265 50.9841Z" fill="#F9F4E4"/>
<path d="M291.065 50.8245C302.087 45.4067 312.621 42.4274 323.936 42.6845C325.151 42.7111 326.33 42.7555 327.536 43.1368C329.079 43.6156 329.433 44.3515 328.804 45.8323C327.234 49.5299 324.876 52.7132 322.446 55.8522C321.949 56.4906 321.524 56.5438 320.788 56.1891C311.69 51.8797 301.981 50.7358 291.083 50.8157L291.065 50.8245Z" fill="#F9F4E1"/>
<path d="M431.724 147.76C428.523 147.76 425.313 147.653 422.121 147.804C420.215 147.893 419.319 147.538 419.497 145.357C419.736 142.519 418.566 138.795 419.975 137.03C421.474 135.151 425.34 136.534 428.169 136.463C432.584 136.348 437 136.507 441.416 136.356C443.207 136.294 443.659 136.888 443.58 138.573C443.438 141.535 444.608 145.401 443.154 147.227C441.655 149.09 437.621 147.556 434.704 147.742C433.711 147.804 432.717 147.751 431.724 147.751V147.768V147.76Z" fill="#FAF7E5"/>
<path d="M147.782 112.3C146.027 112.238 144.227 111.839 142.604 110.899C141.141 110.048 141.363 108.54 141.85 107.37C142.48 105.854 143.641 106.758 144.608 107.21C149.325 109.436 155.204 108.026 156.836 103.105C159.239 95.8694 164.692 94.3176 170.987 93.1472C176.973 92.0388 182.896 90.6289 188.837 89.2989C190.495 88.9264 191.71 89.2988 192.171 91.0191C192.738 93.1294 191.071 92.9255 189.812 93.2092C182.16 94.9472 174.517 96.7561 166.855 98.4674C164.851 98.9108 163.371 99.5758 162.457 101.731C159.753 108.115 155.541 112.672 147.773 112.291L147.782 112.3Z" fill="#262623"/>
<path d="M267.036 112.158C259.259 112.77 255.189 108.221 252.582 101.89C251.722 99.8152 250.508 98.9107 248.344 98.4674C240.239 96.8092 232.162 95.0003 224.11 93.0939C223.206 92.8811 221.166 93.1294 221.769 90.8417C222.292 88.8466 223.711 88.9973 225.103 89.2899C233.899 91.1254 242.678 93.1116 251.501 94.8407C253.38 95.2131 254.347 96.1797 255.127 97.6605C256.262 99.8063 257.247 102.041 258.523 104.107C261.024 108.15 265.661 109.294 269.811 106.927C270.858 106.332 271.806 106.199 272.418 107.104C273.119 108.15 273.172 109.463 271.992 110.358C270.494 111.493 268.747 112.061 267.045 112.176L267.036 112.158Z" fill="#262623"/>
<path d="M213.78 199.153C212.645 200.164 212.033 199.481 211.439 199.614C204.505 201.201 200.435 197.522 197.048 192.113C195.177 189.133 192.694 186.535 190.531 183.742C189.298 182.155 188.447 180.39 190.265 178.732C192.277 176.897 194.007 178.156 195.399 179.708C199.469 184.221 203.379 188.885 207.502 193.354C209.409 195.429 211.652 197.194 213.789 199.144L213.78 199.153Z" fill="#A27A48"/>
<path d="M177.576 39.6608C177.576 39.3328 177.531 38.9869 177.576 38.6677C178.347 33.4184 177.026 28.9494 172.876 25.438C172.14 24.8085 171.52 23.9661 171.076 23.0971C170.58 22.1217 170.89 21.0754 171.75 20.4193C172.672 19.7188 173.603 19.9138 174.339 20.8715C178.028 25.6774 183.18 29.7652 181.876 36.9564C181.61 38.4461 182.098 40.0599 181.929 41.585C181.442 46.0363 183.002 49.5122 186.505 52.2344C187.099 52.6955 187.525 53.3871 188.03 53.9723C188.89 54.9743 188.917 56.0384 187.932 56.8896C187.028 57.6699 186.008 57.3152 185.246 56.5615C181.149 52.527 176.068 48.989 177.558 41.984C177.718 41.2392 177.576 40.4411 177.576 39.6697V39.6608Z" fill="#262623"/>
<path d="M244.035 22.3789C244.097 23.3011 243.618 23.8597 243.112 24.2233C236.861 28.7277 236.072 35.2362 237.349 41.9308C238.785 49.4413 233.261 52.66 229.298 56.9428C228.632 57.661 227.551 57.8561 226.708 56.8807C225.937 55.9852 225.937 55.1339 226.762 54.2383C227.586 53.3516 228.198 52.1989 229.147 51.4984C232.791 48.8028 233.385 45.0343 233.181 40.9111C233.146 40.2461 233.181 39.581 233.199 38.916C233.288 28.9317 233.607 28.0982 240.115 21.0311C240.754 20.3395 241.472 19.8163 242.439 20.2153C243.441 20.6321 243.91 21.4922 244.035 22.3789Z" fill="#262623"/>
<path d="M221.548 201.671C223.8 201.671 225.573 201.733 227.338 201.654C229.448 201.565 229.98 202.86 230.069 204.58C230.184 206.69 228.712 206.85 227.187 206.788C222.895 206.601 218.621 205.839 214.312 206.788C212.645 207.16 210.907 207.612 209.985 208.969C207.626 212.445 204.177 211.399 200.976 211.54C200.054 211.585 199.619 211.363 199.77 210.219C200.169 207.293 203.787 202.931 206.74 203.064C211.945 203.312 216.813 200.669 221.539 201.671H221.548Z" fill="#A17947"/>
<path d="M189.032 104.133C189.263 105.082 188.81 105.729 188.163 106.182C183.614 109.365 183.1 114.082 183.738 118.924C184.279 123.011 182.754 125.574 179.411 127.622C176.6 129.351 173.985 131.4 171.298 133.324C170.189 134.113 168.939 135.133 167.946 133.501C167.059 132.065 167.308 130.646 169.019 129.6C171.457 128.101 173.665 126.212 176.148 124.803C178.994 123.18 180.325 121.034 179.695 117.771C178.489 111.493 180.768 106.59 185.68 102.786C186.31 102.298 186.948 101.234 187.924 101.863C188.66 102.333 188.961 103.273 189.032 104.133Z" fill="#262623"/>
<path d="M217.54 50.9043C217.691 52.0127 217.327 52.9704 216.183 53.5556C214.543 54.3891 214.419 52.7309 213.807 52.0304C210.464 48.2265 204.558 48.1821 201.375 51.9861C200.648 52.8551 200.16 54.5753 198.671 53.7418C197.137 52.8817 196.684 51.1792 197.03 49.4058C198.121 43.8461 204.674 40.4146 210.544 42.3121C215.172 43.8018 217.611 46.7634 217.531 50.9043H217.54Z" fill="#116493"/>
<path d="M480.121 223.662C479.119 220.878 476.849 219.973 475.076 218.546C474.615 218.173 473.648 218.182 473.834 217.26C473.976 216.542 474.606 216.213 475.271 216.027C478.303 215.203 481.194 215.353 483.757 217.411C484.271 217.818 484.697 218.342 485.149 218.838C487.605 221.534 490.008 225.063 488.953 228.202C488.35 229.993 483.588 229.443 480.706 229.097C476.397 228.574 473.134 225.639 472.566 222.385C472.203 220.337 473.489 220.798 474.499 221.108C476.353 221.693 477.665 223.476 480.13 223.662H480.121Z" fill="#3A5F0B"/>
<path d="M207.387 117.079C204.523 117.079 201.659 117.008 198.795 117.106C196.968 117.168 196.356 116.281 196.684 114.694C196.968 113.311 195.975 111.156 198.857 111.209C204.47 111.316 210.091 111.245 215.704 111.263C218.506 111.271 217.779 113.515 218.054 115.093C218.391 117.071 217.123 117.177 215.651 117.15C212.902 117.097 210.145 117.133 207.396 117.133V117.088L207.387 117.079Z" fill="#116493"/>
<path d="M206.944 137.74C204.62 137.74 202.279 137.58 199.965 137.784C197.482 137.997 196.791 137.137 196.746 134.645C196.693 131.914 198.032 131.887 200.018 131.95C205.108 132.091 210.198 132.216 215.287 132.153C217.69 132.127 217.549 133.537 217.602 135.159C217.655 136.871 217.283 137.89 215.252 137.793C212.485 137.669 209.719 137.766 206.944 137.766V137.749V137.74Z" fill="#116493"/>
<path d="M207.36 121.761C210.118 121.761 212.876 121.885 215.624 121.726C218.639 121.548 217.806 123.739 218.054 125.29C218.382 127.303 217.283 127.782 215.545 127.622C209.834 127.09 204.097 127.206 198.378 127.25C196.773 127.259 196.108 126.567 196.356 125.069C196.578 123.712 195.931 121.735 198.44 121.761C201.41 121.788 204.39 121.761 207.36 121.761Z" fill="#116493"/>
<path d="M207.431 106.474C204.895 106.474 202.368 106.474 199.832 106.474C198.608 106.474 197.243 106.652 197.429 104.736C197.58 103.149 197.243 101.207 199.77 101.181C204.833 101.127 209.896 101.065 214.959 101.039C217.761 101.021 217.043 103.46 217.389 104.914C217.859 106.873 216.165 106.51 215.03 106.519C212.494 106.545 209.967 106.519 207.431 106.519V106.465V106.474Z" fill="#116493"/>
<path d="M207.272 142.413C209.258 142.413 211.244 142.386 213.23 142.413C214.711 142.439 216.369 142.005 216.254 144.612C216.156 146.873 215.749 148.061 213.106 147.91C209.143 147.68 205.152 147.697 201.189 147.839C198.777 147.928 198.245 146.837 198.103 144.692C197.935 142.244 199.344 142.359 200.967 142.386C203.06 142.43 205.161 142.395 207.263 142.395L207.272 142.413Z" fill="#116493"/>
<path d="M207.316 152.388C208.415 152.388 209.541 152.255 210.614 152.424C211.944 152.636 214.002 151.572 214.365 153.754C214.791 156.307 212.884 158.453 210.543 158.568C208.238 158.684 205.933 158.799 203.636 158.941C202.111 159.03 201.233 158.498 200.807 156.884C199.646 152.432 199.575 152.45 204.345 152.406C205.339 152.406 206.323 152.406 207.316 152.406V152.388Z" fill="#116493"/>
<path d="M191.258 23.3454C192.428 23.4341 193.137 24.1967 193.563 25.0745C195.354 28.7987 198.254 31.6982 200.71 34.9258C201.597 36.0874 202.625 37.3377 200.683 38.7298C198.6 40.2195 198.272 38.2421 197.491 37.3022C194.893 34.1633 192.339 30.9977 189.874 27.7612C189.271 26.9721 188.34 25.9878 189.227 24.7996C189.741 24.108 190.247 23.3188 191.258 23.3454Z" fill="#262623"/>
<path d="M226.079 25.8193C226.15 26.6883 225.627 27.1139 225.201 27.6193C222.319 31.0864 219.437 34.5534 216.618 38.0736C215.873 38.9958 215.314 39.9446 214.046 38.8185C213.071 37.9406 212.317 37.0096 213.452 35.7593C216.547 32.3455 219.313 28.6922 221.663 24.7198C222.151 23.904 222.913 23.0173 224.093 23.4695C225.183 23.8863 225.706 24.8794 226.079 25.8193Z" fill="#262623"/>
<path d="M206.243 91.356C208.229 91.356 210.233 91.5244 212.193 91.3116C214.463 91.0722 215.119 92.3402 215.42 94.1402C215.669 95.6122 215.367 96.3215 213.523 96.1974C209.666 95.9491 205.782 96.091 201.907 95.9403C201.082 95.9048 199.38 97.1728 199.495 95.0447C199.575 93.4663 199.77 91.5067 201.951 91.2939C203.361 91.1609 204.815 91.4712 206.243 91.5776C206.243 91.4978 206.243 91.4269 206.243 91.3471V91.356Z" fill="#116493"/>
<path d="M202.67 162.958C204.957 162.958 206.713 162.967 208.46 162.958C210.872 162.94 211.599 164.013 210.083 165.928C209.169 167.072 208.495 169.511 207.13 169.049C204.842 168.278 203.858 165.786 202.679 162.967L202.67 162.958Z" fill="#116493"/>
</g>
<defs>
<filter id="filter0_dddddd_9_239" x="342.251" y="145.733" width="187.286" height="182.955" filterUnits="userSpaceOnUse" color-interpolation-filters="sRGB">
<feFlood flood-opacity="0" result="BackgroundImageFix"/>
<feColorMatrix in="SourceAlpha" type="matrix" values="0 0 0 0 0 0 0 0 0 0 0 0 0 0 0 0 0 0 127 0" result="hardAlpha"/>
<feOffset/>
<feGaussianBlur stdDeviation="0.929315"/>
<feColorMatrix type="matrix" values="0 0 0 0 0.815675 0 0 0 0 0.964576 0 0 0 0 0.611419 0 0 0 1 0"/>
<feBlend mode="normal" in2="BackgroundImageFix" result="effect1_dropShadow_9_239"/>
<feColorMatrix in="SourceAlpha" type="matrix" values="0 0 0 0 0 0 0 0 0 0 0 0 0 0 0 0 0 0 127 0" result="hardAlpha"/>
<feOffset/>
<feGaussianBlur stdDeviation="1.85863"/>
<feColorMatrix type="matrix" values="0 0 0 0 0.815675 0 0 0 0 0.964576 0 0 0 0 0.611419 0 0 0 1 0"/>
<feBlend mode="normal" in2="effect1_dropShadow_9_239" result="effect2_dropShadow_9_239"/>
<feColorMatrix in="SourceAlpha" type="matrix" values="0 0 0 0 0 0 0 0 0 0 0 0 0 0 0 0 0 0 127 0" result="hardAlpha"/>
<feOffset/>
<feGaussianBlur stdDeviation="6.50521"/>
<feColorMatrix type="matrix" values="0 0 0 0 0.815675 0 0 0 0 0.964576 0 0 0 0 0.611419 0 0 0 1 0"/>
<feBlend mode="normal" in2="effect2_dropShadow_9_239" result="effect3_dropShadow_9_239"/>
<feColorMatrix in="SourceAlpha" type="matrix" values="0 0 0 0 0 0 0 0 0 0 0 0 0 0 0 0 0 0 127 0" result="hardAlpha"/>
<feOffset/>
<feGaussianBlur stdDeviation="13.0104"/>
<feColorMatrix type="matrix" values="0 0 0 0 0.227451 0 0 0 0 0.372549 0 0 0 0 0.0431373 0 0 0 1 0"/>
<feBlend mode="normal" in2="effect3_dropShadow_9_239" result="effect4_dropShadow_9_239"/>
<feColorMatrix in="SourceAlpha" type="matrix" values="0 0 0 0 0 0 0 0 0 0 0 0 0 0 0 0 0 0 127 0" result="hardAlpha"/>
<feOffset/>
<feGaussianBlur stdDeviation="22.3036"/>
<feColorMatrix type="matrix" values="0 0 0 0 0.227451 0 0 0 0 0.372549 0 0 0 0 0.0431373 0 0 0 1 0"/>
<feBlend mode="normal" in2="effect4_dropShadow_9_239" result="effect5_dropShadow_9_239"/>
<feColorMatrix in="SourceAlpha" type="matrix" values="0 0 0 0 0 0 0 0 0 0 0 0 0 0 0 0 0 0 127 0" result="hardAlpha"/>
<feOffset/>
<feGaussianBlur stdDeviation="39.0312"/>
<feColorMatrix type="matrix" values="0 0 0 0 0.227451 0 0 0 0 0.372549 0 0 0 0 0.0431373 0 0 0 1 0"/>
<feBlend mode="normal" in2="effect5_dropShadow_9_239" result="effect6_dropShadow_9_239"/>
<feBlend mode="normal" in="SourceGraphic" in2="effect6_dropShadow_9_239" result="shape"/>
</filter>
<clipPath id="clip0_9_239">
<rect width="560" height="270" fill="white"/>
</clipPath>
</defs>
</svg>
